<svg fill="#FFFFFF" height="36" viewBox="0 0 36 36" width="36" xmlns="http://www.w3.org/2000/svg">
    <path d="M28.1818182,10.7842047 L16.5454545,10.7842047 L16.5454545,19.4605117 L28.1818182,19.4605117 L28.1818182,10.7842047 Z M31.0909091,5 L4.90909091,5 C3.30909091,5 2,6.30144605 2,7.89210234 L2,28.1368187 C2,29.727475 3.30909091,31 4.90909091,31 L31.0909091,31 C32.6909091,31 34,29.727475 34,28.1368187 L34,7.89210234 C34,6.30144605 32.6909091,5 31.0909091,5 Z M31.0909091,28.1512792 L4.90909091,28.1512792 L4.90909091,7.86318131 L31.0909091,7.86318131 L31.0909091,28.1512792 L31.0909091,28.1512792 Z" id="Shape" fill="#FFFFFF"></path>
    <path d="M0 0h24v24H0z" fill="none"/>
</svg>
