<?xml version="1.0" encoding="utf-8"?>
<!-- Generator: Adobe Illustrator 20.1.0, SVG Export Plug-In . SVG Version: 6.00 Build 0)  -->
<svg version="1.1" id="Layer_1" xmlns="http://www.w3.org/2000/svg" xmlns:xlink="http://www.w3.org/1999/xlink" x="0px" y="0px"
	 viewBox="0 0 36 36" style="enable-background:new 0 0 36 36;" xml:space="preserve">
<style type="text/css">
	.st0{fill:url(#SVGID_1_);}
	.st1{fill:url(#SVGID_2_);}
</style>
<linearGradient id="SVGID_1_" gradientUnits="userSpaceOnUse" x1="18" y1="0" x2="18" y2="36">
	<stop  offset="0" style="stop-color:#C9C9C9"/>
	<stop  offset="1" style="stop-color:#6D6D6D"/>
</linearGradient>
<path class="st0" d="M36,18c0,9.9-8.1,18-18,18S0,27.9,0,18S8.1,0,18,0S36,8.1,36,18z M18,3.1C9.8,3.1,3.1,9.8,3.1,18
	S9.8,32.9,18,32.9S32.9,26.2,32.9,18S26.2,3.1,18,3.1z"/>
<linearGradient id="SVGID_2_" gradientUnits="userSpaceOnUse" x1="18" y1="9.8" x2="18" y2="26.3">
	<stop  offset="0" style="stop-color:#C9C9C9"/>
	<stop  offset="1" style="stop-color:#6D6D6D"/>
</linearGradient>
<path class="st1" d="M27,26.3H9c-1.1,0-2-0.9-2-2V11.8c0-1.1,0.9-2,2-2h18c1.1,0,2,0.9,2,2v12.5C29,25.4,28.1,26.3,27,26.3z
	 M18.4,15v-1.9c0-1.1-0.9-2-2-2h-6.3c-1.1,0-2,0.9-2,2V15c0,1.1,0.9,2,2,2h6.3C17.5,17,18.4,16.1,18.4,15z"/>
</svg>
